<svg xmlns="http://www.w3.org/2000/svg" width="30" height="30" viewBox="0 0 30 30">
  <path id="dribbble" d="M841.125,6154.375a15,15,0,1,1,15,15A15,15,0,0,1,841.125,6154.375Zm2.344,0a12.656,12.656,0,1,0,12.656-12.657A12.656,12.656,0,0,0,843.469,6154.375Zm5.156,0a7.5,7.5,0,1,1,7.5,7.5A7.5,7.5,0,0,1,848.625,6154.375Zm5.38,3.027a8.554,8.554,0,0,0-1.358,1.67,5.826,5.826,0,0,0,5.555.771,28.959,28.959,0,0,0-1.157-4.283A7.955,7.955,0,0,0,854.006,6157.4Zm4.351-2.146a30.055,30.055,0,0,1,1.081,3.931,5.842,5.842,0,0,0,2.432-3.741,10.388,10.388,0,0,0-2.3-.276h-.016A8.29,8.29,0,0,0,858.356,6155.256Zm-8.082-.881a5.8,5.8,0,0,0,1.383,3.764,9.946,9.946,0,0,1,1.613-1.881,9.241,9.241,0,0,1,3.295-1.943q-.167-.4-.338-.776a18.4,18.4,0,0,1-5.312.763c-.257,0-.472-.006-.638-.012A.789.789,0,0,0,850.274,6154.375Zm9.3-.542a11.536,11.536,0,0,1,2.392.266,5.808,5.808,0,0,0-1.246-3.336,9.105,9.105,0,0,1-3.237,2.307q.2.437.392.911a9.831,9.831,0,0,1,1.7-.147Zm-9.127-.876c.132,0,.286.008.468.008h.091a16.942,16.942,0,0,0,4.622-.647,17.883,17.883,0,0,0-2.089-3.185A5.874,5.874,0,0,0,850.448,6152.957Zm4.433-4.293a20.538,20.538,0,0,1,2.021,3.2,7.618,7.618,0,0,0,2.874-2.053,5.774,5.774,0,0,0-4.894-1.146Z" transform="translate(-841.125 -6139.375)" fill="#b2b2b2"/>
</svg>
