<svg xmlns="http://www.w3.org/2000/svg" width="30.834" height="30.833" viewBox="0 0 30.834 30.833">
  <path id="google" d="M751,6154.083a15.417,15.417,0,1,1,15.417,15.417A15.417,15.417,0,0,1,751,6154.083Zm2.409,0a13.008,13.008,0,1,0,13.008-13.007A13.007,13.007,0,0,0,753.409,6154.083Zm5.294,4.826c0-3.335,4.657-3.384,5.037-3.384s.44-.107.125-.445a1.219,1.219,0,0,1-.232-1.712c-1.05.043-3.944-.528-3.944-3.194s2.79-3.806,3.795-3.806H768.5a5.72,5.72,0,0,1-.756.486,2.979,2.979,0,0,1-1.511.148,3.1,3.1,0,0,1,1.364,2.495c0,1.65-.8,2.369-1.8,3.258s-.42,1.417,1.154,2.538a3.353,3.353,0,0,1-.022,5.4,5.989,5.989,0,0,1-3.768,1.11C760.935,6161.8,758.7,6160.912,758.7,6158.909Zm1.782-.613c0,1.543,1.112,2.58,3.188,2.58s3.295-.7,3.295-2.137-1.372-2.157-2.14-2.75C762,6155.989,760.485,6156.751,760.485,6158.3Zm2.792-11.419c-2.939,0-1.805,5.834.692,5.834,3.289,0,1.618-5.835-.642-5.835Zm7.986,4.313v-1.9h-1.92v-.985h1.92v-1.9h.98v1.9h1.887v.985h-1.887v1.9Z" transform="translate(-750.999 -6138.667)" fill="#b2b2b2"/>
</svg>
