<svg xmlns="http://www.w3.org/2000/svg" width="30.499" height="30.501" viewBox="0 0 30.499 30.501">
  <path id="linkedin" d="M796,6154.25a15.25,15.25,0,1,1,15.25,15.25A15.25,15.25,0,0,1,796,6154.25Zm2.383,0a12.867,12.867,0,1,0,12.867-12.868A12.867,12.867,0,0,0,798.383,6154.25Zm17.637,7.618V6155.2c-.04-.224-.694-1.827-1.906-1.906a2.428,2.428,0,0,0-2.858,1.906v6.672H808.4v-11.437h2.86v1.906a5.249,5.249,0,0,1,3.812-1.906,3.569,3.569,0,0,1,3.8,3.532v7.918Zm-12.39,0v-11.437h2.86v11.438Zm0-13.82a1.43,1.43,0,1,1,1.429,1.431A1.429,1.429,0,0,1,803.631,6148.048Z" transform="translate(-796 -6138.999)" fill="#b2b2b2"/>
</svg>
