<svg xmlns="http://www.w3.org/2000/svg" width="31.499" height="31.5" viewBox="0 0 31.499 31.5">
  <path id="twitter" d="M705.751,6154.25A15.749,15.749,0,1,1,721.5,6170,15.749,15.749,0,0,1,705.751,6154.25Zm2.461,0a13.289,13.289,0,1,0,13.289-13.289A13.288,13.288,0,0,0,708.211,6154.25Zm5.413,5.342a5.1,5.1,0,0,0,4.5-1.451,3.127,3.127,0,0,1-2.9-2.377,2.356,2.356,0,0,0,1.352-.11,3.345,3.345,0,0,1-2.505-3.417,1.976,1.976,0,0,0,1.418.393,3.662,3.662,0,0,1-.985-4.622,9.138,9.138,0,0,0,6.883,3.63,3.792,3.792,0,0,1-.084-.779,3.381,3.381,0,0,1,3.25-3.5,3.131,3.131,0,0,1,2.349,1.083v0a5.032,5.032,0,0,0,2.027-.773,3.7,3.7,0,0,1-1.355,1.9,5.409,5.409,0,0,0,1.8-.551,5.865,5.865,0,0,1-1.576,1.79c0,.019,0,.036,0,.054s0,.028,0,.043,0,.013,0,.021c.22,5.643-3.851,10.218-9.094,10.218A9.246,9.246,0,0,1,713.625,6159.592Z" transform="translate(-705.751 -6138.499)" fill="#b2b2b2"/>
</svg>
